<?xml version="1.0" encoding="UTF-8" standalone="no"?>
<svg
   xmlns:dc="http://purl.org/dc/elements/1.1/"
   xmlns:cc="http://creativecommons.org/ns#"
   xmlns:rdf="http://www.w3.org/1999/02/22-rdf-syntax-ns#"
   xmlns:svg="http://www.w3.org/2000/svg"
   xmlns="http://www.w3.org/2000/svg"
   viewBox="0 0 340.13791 415.45602"
   height="415.45602"
   width="340.13791"
   xml:space="preserve"
   id="svg2"
   version="1.1"><metadata
     id="metadata8"><rdf:RDF><cc:Work
         rdf:about=""><dc:format>image/svg+xml</dc:format><dc:type
           rdf:resource="http://purl.org/dc/dcmitype/StillImage" /></cc:Work></rdf:RDF></metadata><defs
     id="defs6"><clipPath
       id="clipPath14"
       clipPathUnits="userSpaceOnUse"><path
         id="path12"
         d="M 0,0 H 255.12149 V 360.59256 H 0 Z" /></clipPath><clipPath
       id="clipPath26"
       clipPathUnits="userSpaceOnUse"><path
         style="clip-rule:evenodd"
         id="path24"
         d="M 0,0 H 595 V 841 H 0 Z" /></clipPath><clipPath
       id="clipPath36"
       clipPathUnits="userSpaceOnUse"><path
         style="clip-rule:evenodd"
         id="path34"
         d="M 0,0 H 1007 V 1235 H 0 Z" /></clipPath><clipPath
       id="clipPath56"
       clipPathUnits="userSpaceOnUse"><path
         id="path54"
         d="M 0,0 H 1007 V 1235 H 0 Z" /></clipPath><clipPath
       id="clipPath80"
       clipPathUnits="userSpaceOnUse"><path
         style="clip-rule:evenodd"
         id="path78"
         d="m 498,47 h 225 v 76 H 498 Z" /></clipPath><clipPath
       id="clipPath94"
       clipPathUnits="userSpaceOnUse"><path
         style="clip-rule:evenodd"
         id="path92"
         d="M 0,0 H 1007 V 1235 H 0 Z" /></clipPath><clipPath
       id="clipPath106"
       clipPathUnits="userSpaceOnUse"><path
         style="clip-rule:evenodd"
         id="path104"
         d="m 644,194 h 278 v 66 H 644 Z" /></clipPath><clipPath
       id="clipPath120"
       clipPathUnits="userSpaceOnUse"><path
         style="clip-rule:evenodd"
         id="path118"
         d="M 0,0 H 1007 V 1235 H 0 Z" /></clipPath><clipPath
       id="clipPath132"
       clipPathUnits="userSpaceOnUse"><path
         style="clip-rule:evenodd"
         id="path130"
         d="M 294,194 H 576 V 314 H 294 Z" /></clipPath><clipPath
       id="clipPath150"
       clipPathUnits="userSpaceOnUse"><path
         style="clip-rule:evenodd"
         id="path148"
         d="M 0,0 H 1007 V 1235 H 0 Z" /></clipPath><clipPath
       id="clipPath162"
       clipPathUnits="userSpaceOnUse"><path
         style="clip-rule:evenodd"
         id="path160"
         d="m 522,428 h 213 v 47 H 522 Z" /></clipPath><clipPath
       id="clipPath176"
       clipPathUnits="userSpaceOnUse"><path
         style="clip-rule:evenodd"
         id="path174"
         d="M 0,0 H 1007 V 1235 H 0 Z" /></clipPath><clipPath
       id="clipPath188"
       clipPathUnits="userSpaceOnUse"><path
         style="clip-rule:evenodd"
         id="path186"
         d="M 662,546 H 958 V 865 H 662 Z" /></clipPath><clipPath
       id="clipPath226"
       clipPathUnits="userSpaceOnUse"><path
         style="clip-rule:evenodd"
         id="path224"
         d="M 0,0 H 1007 V 1235 H 0 Z" /></clipPath><clipPath
       id="clipPath238"
       clipPathUnits="userSpaceOnUse"><path
         style="clip-rule:evenodd"
         id="path236"
         d="m 49,546 h 545 v 646 H 49 Z" /></clipPath></defs><g
     clip-path="url(#clipPath14)"
     transform="matrix(1.3333333,0,0,-1.3333333,0,480.79008)"
     id="g10"><g
       transform="scale(0.9)"
       id="g16"><g
         transform="scale(0.476417,0.476407)"
         id="g18"><g
           id="g20"><g
             clip-path="url(#clipPath26)"
             id="g22"><g
               transform="matrix(0.59086394,0,0,-0.59086394,0,840.99999)"
               id="g28"><g
                 id="g30"><g
                   clip-path="url(#clipPath36)"
                   id="g32"><path
                     id="path38"
                     style="fill:#ffffff;fill-opacity:1;fill-rule:nonzero;stroke:none"
                     d="M 0,0 H 1007 V 1235 H 0 Z" /><path
                     id="path40"
                     style="fill:#000000;fill-opacity:1;fill-rule:nonzero;stroke:none"
                     d="m 503.84665,325.61194 -1.11664,-1.14121 c -0.40796,-0.41693 -0.40347,-0.82937 0.0135,-1.23736 0.41693,-0.40796 0.82938,-0.40347 1.23733,0.0135 l 8.56092,8.74917 -1.25083,1.22388 -8.56088,-8.74918 0.6254,-0.61193 0.62543,-0.61194 1.11663,1.1412 -1.25085,1.22388 z m 13.63052,11.42807 9.59662,9.80777 -1.25085,1.22388 -9.59662,-9.80777 z m 14.53693,14.85663 9.94403,10.16275 -1.25085,1.22387 -9.94404,-10.16275 z m 14.85931,15.18618 3.50519,3.58231 6.4422,6.58389 -1.25085,1.22388 -6.4422,-6.58389 -3.50519,-3.58231 z m 14.88526,15.21259 9.72778,9.9418 -1.25085,1.22388 -9.72779,-9.9418 z m 14.60168,14.92282 9.83301,10.04929 -1.25086,1.22387 -9.833,-10.04928 z m 14.73584,15.05991 0.79474,0.81225 -1.25085,1.22388 -0.79474,-0.81226 z" /><path
                     id="path42"
                     style="fill:#000000;fill-opacity:1;fill-rule:nonzero;stroke:none"
                     d="m 591.2655,413.70233 -7.23578,-17.40384 -10.00659,9.79123 z" /><path
                     id="path44"
                     style="fill:#ffffff;fill-opacity:1;fill-rule:nonzero;stroke:none"
                     d="m 535.94354,344.16367 v 26 z" /><path
                     id="path46"
                     style="fill:#000000;fill-opacity:1;fill-rule:nonzero;stroke:none"
                     d="m 753.62134,271.49405 -7.89527,11.54089 -1.44433,-0.9881 7.89526,-11.54089 z m -11.7843,17.22571 -7.94403,11.61224 -1.44434,-0.9881 7.94403,-11.61224 z m -11.73438,17.15286 -8.04114,11.75415 -1.44433,-0.9881 8.04114,-11.75415 z m -11.99103,17.52786 -7.90692,11.55811 -1.44433,-0.9881 7.90692,-11.55811 z m -11.91913,17.42288 -2.5484,3.7251 -5.39935,7.89252 -1.44433,-0.9881 5.39935,-7.89252 2.5484,-3.72509 z m -11.8919,17.38306 -8.01911,11.72199 -1.44433,-0.9881 8.0191,-11.72199 z m -11.98487,17.51889 -7.80725,11.41235 -1.44433,-0.98809 7.80725,-11.41236 z m -11.71459,17.1239 -7.9831,11.66928 -1.44433,-0.98809 7.98309,-11.66929 z m -11.93909,17.45197 -2.66474,3.8952 -1.44433,-0.9881 2.66473,-3.8952 z" /><path
                     id="path48"
                     style="fill:#000000;fill-opacity:1;fill-rule:nonzero;stroke:none"
                     d="m 655.27515,413.70233 15.65838,-10.49115 -11.55481,-7.90478 z" /><path
                     id="path50"
                     style="fill:#ffffff;fill-opacity:1;fill-rule:nonzero;stroke:none"
                     d="m 705.49817,327.28867 v 26 z" /><g
                     id="g52" /><g
                     id="g68"><g
                       id="g66"
                       clip-path="url(#clipPath56)"><path
                         id="path58"
                         style="fill:none;stroke:#000000;stroke-width:1;stroke-linecap:butt;stroke-linejoin:miter;stroke-miterlimit:10;stroke-dasharray:none;stroke-opacity:1"
                         d="m 610.5,138 v 22.5 H 442 c -4.66666,0 -7,2.33333 -7,7 V 183" /><path
                         id="path60"
                         style="fill:none;stroke:#000000;stroke-width:1;stroke-linecap:butt;stroke-linejoin:miter;stroke-miterlimit:10;stroke-dasharray:none;stroke-opacity:1"
                         d="m 610.5,138 v 22.5 H 776 c 4.66669,0 7,2.33333 7,7 V 183" /><path
                         id="path62"
                         style="fill:none;stroke:#000000;stroke-width:1;stroke-linecap:butt;stroke-linejoin:miter;stroke-miterlimit:10;stroke-dasharray:none;stroke-opacity:1"
                         d="M 628.93695,490.70233 V 512.8512 H 328.5 c -4.66666,0 -7,2.33331 -7,7 V 535" /><path
                         id="path64"
                         style="fill:none;stroke:#000000;stroke-width:1;stroke-linecap:butt;stroke-linejoin:miter;stroke-miterlimit:10;stroke-dasharray:none;stroke-opacity:1"
                         d="M 628.93695,490.70233 V 512.8512 H 803 c 4.66669,0 7,2.33331 7,7 V 535" /></g></g><g
                     transform="translate(480,32)"
                     id="g70"><path
                       id="path72"
                       style="fill:none;stroke:#000000;stroke-width:1;stroke-linecap:butt;stroke-linejoin:miter;stroke-miterlimit:10;stroke-dasharray:none;stroke-opacity:1"
                       d="M 0.5,98.5 V 7.5 C 0.49999997,6.5717421 0.67761433,5.6788139 1.0328432,4.8212156 1.388072,3.9636173 1.893875,3.2066298 2.5502524,2.5502524 3.2066298,1.893875 3.9636171,1.388072 4.8212152,1.0328432 5.6788139,0.67761439 6.5717421,0.5 7.5,0.5 h 246 c 0.92824,0 1.82115,0.17761439 2.67874,0.5328432 0.85758,0.3552288 1.61456,0.8610318 2.27097,1.5174092 0.65637,0.6563774 1.16217,1.4133647 1.51739,2.2709628 C 260.32236,5.6788139 260.49997,6.5717421 260.5,7.5 v 91 c -3e-5,0.928246 -0.17764,1.82117 -0.5329,2.67876 -0.35522,0.8576 -0.86102,1.6146 -1.51739,2.27098 -0.65641,0.65637 -1.41339,1.16217 -2.27097,1.5174 -0.85759,0.35523 -1.7505,0.53285 -2.67874,0.53286 H 7.5 c -0.9282579,-1e-5 -1.8211861,-0.17763 -2.6787844,-0.53286 -0.8575983,-0.35523 -1.6145858,-0.86103 -2.2709632,-1.5174 C 1.893875,102.79336 1.388072,102.03637 1.0328432,101.17877 0.67761433,100.32117 0.49999997,99.428246 0.5,98.5 Z" /></g></g></g><g
                 id="g74"><g
                   clip-path="url(#clipPath80)"
                   id="g76"><g
                     transform="translate(498,47)"
                     id="g82"><text
                       id="text86"
                       style="font-variant:normal;font-weight:normal;font-size:56px;font-family:Roboto;-inkscape-font-specification:Roboto-Regular;writing-mode:lr-tb;fill:#000000;fill-opacity:1;fill-rule:nonzero;stroke:none"
                       transform="translate(0,60)"><tspan
                         id="tspan84"
                         y="0"
                         x="0 36 68 100 130 162 194">Явления</tspan></text>
</g></g></g><g
                 id="g88"><g
                   clip-path="url(#clipPath94)"
                   id="g90"><g
                     transform="translate(627,183)"
                     id="g96"><path
                       id="path98"
                       style="fill:none;stroke:#000000;stroke-width:1;stroke-linecap:butt;stroke-linejoin:miter;stroke-miterlimit:10;stroke-dasharray:none;stroke-opacity:1"
                       d="M 0.5,80.5 V 7.5 C 0.49999997,6.5717421 0.67761433,5.6788139 1.0328432,4.8212156 1.388072,3.9636173 1.893875,3.2066298 2.5502524,2.5502524 3.2066298,1.893875 3.9636171,1.388072 4.8212152,1.0328432 5.6788139,0.67761439 6.5717421,0.5 7.5,0.5 h 297 c 0.92825,0 1.82117,0.17761439 2.67877,0.5328432 0.85758,0.3552288 1.61456,0.8610318 2.27097,1.5174092 0.65637,0.6563774 1.16217,1.4133647 1.51739,2.2709628 C 311.32236,5.6788139 311.49997,6.5717421 311.5,7.5 v 73 c -3e-5,0.928253 -0.17764,1.821175 -0.53287,2.678772 -0.35522,0.857597 -0.86102,1.614586 -1.51739,2.270966 -0.65641,0.656372 -1.41339,1.162178 -2.27097,1.51741 C 306.32117,87.322372 305.42825,87.499992 304.5,87.5 H 7.5 C 6.5717421,87.499992 5.6788139,87.322372 4.8212156,86.967148 3.9636173,86.611916 3.2066298,86.10611 2.5502524,85.449738 1.893875,84.793358 1.388072,84.036369 1.0328432,83.178772 0.67761433,82.321175 0.49999997,81.428253 0.5,80.5 Z" /></g></g></g><g
                 id="g100"><g
                   clip-path="url(#clipPath106)"
                   id="g102"><g
                     transform="translate(644,194)"
                     id="g108"><text
                       id="text112"
                       style="font-variant:normal;font-weight:normal;font-size:49px;font-family:Roboto;-inkscape-font-specification:Roboto-Regular;writing-mode:lr-tb;fill:#000000;fill-opacity:1;fill-rule:nonzero;stroke:none"
                       transform="translate(0,52)"><tspan
                         id="tspan110"
                         y="0"
                         x="0 38 66 91 119 146 172 198 224 252">Физические</tspan></text>
</g></g></g><g
                 id="g114"><g
                   clip-path="url(#clipPath120)"
                   id="g116"><g
                     transform="translate(277,183)"
                     id="g122"><path
                       id="path124"
                       style="fill:none;stroke:#000000;stroke-width:1;stroke-linecap:butt;stroke-linejoin:miter;stroke-miterlimit:10;stroke-dasharray:none;stroke-opacity:1"
                       d="M 0.5,134.5 V 7.5 C 0.49999997,6.5717421 0.67761433,5.6788139 1.0328432,4.8212156 1.388072,3.9636173 1.893875,3.2066298 2.5502524,2.5502524 3.2066298,1.893875 3.9636171,1.388072 4.8212152,1.0328432 5.6788139,0.67761439 6.5717421,0.5 7.5,0.5 h 301 c 0.92825,0 1.82117,0.17761439 2.67874,0.5328432 0.85758,0.3552288 1.61456,0.8610318 2.27097,1.5174092 0.65637,0.6563774 1.16217,1.4133647 1.51742,2.2709628 C 315.32236,5.6788139 315.49997,6.5717421 315.5,7.5 v 127 c -3e-5,0.92825 -0.17764,1.82118 -0.53287,2.67877 -0.35525,0.85759 -0.86105,1.61458 -1.51742,2.27097 -0.65641,0.65637 -1.41339,1.16217 -2.27097,1.51739 -0.85757,0.35524 -1.75049,0.53285 -2.67874,0.53287 H 7.5 c -0.9282579,-2e-5 -1.8211861,-0.17763 -2.6787844,-0.53287 C 3.9636173,140.61191 3.2066298,140.10611 2.5502524,139.44974 1.893875,138.79335 1.388072,138.03636 1.0328432,137.17877 0.67761433,136.32118 0.49999997,135.42825 0.5,134.5 Z" /></g></g></g><g
                 id="g126"><g
                   clip-path="url(#clipPath132)"
                   id="g128"><g
                     transform="translate(294,194)"
                     id="g134"><text
                       id="text138"
                       style="font-variant:normal;font-weight:normal;font-size:49px;font-family:Roboto;-inkscape-font-specification:Roboto-Regular;writing-mode:lr-tb;fill:#000000;fill-opacity:1;fill-rule:nonzero;stroke:none"
                       transform="translate(0,52)"><tspan
                         id="tspan136"
                         y="0"
                         x="0 31 59 95 123 150 176 202 228 256">Химические</tspan></text>
<text
                       id="text142"
                       style="font-variant:normal;font-weight:normal;font-size:35px;font-family:Roboto;-inkscape-font-specification:Roboto-Regular;writing-mode:lr-tb;fill:#000000;fill-opacity:1;fill-rule:nonzero;stroke:none"
                       transform="translate(0,110)"><tspan
                         id="tspan140"
                         y="0"
                         x="0 12 34 54 80 89 98 118 137 156 175 196 216 236">(Хим. реакции)</tspan></text>
</g></g></g><g
                 id="g144"><g
                   clip-path="url(#clipPath150)"
                   id="g146"><g
                     transform="translate(504,413)"
                     id="g152"><path
                       id="path154"
                       style="fill:none;stroke:#000000;stroke-width:1;stroke-linecap:butt;stroke-linejoin:miter;stroke-miterlimit:10;stroke-dasharray:none;stroke-opacity:1"
                       d="M 0.5,69.5 V 7.5 C 0.49999997,6.5717421 0.67761433,5.6788139 1.0328432,4.8212156 1.388072,3.9636173 1.893875,3.2066298 2.5502524,2.5502524 3.2066298,1.893875 3.9636171,1.388072 4.8212152,1.0328432 5.6788139,0.67761439 6.5717421,0.5 7.5,0.5 h 234 c 0.92824,0 1.82117,0.17761439 2.67877,0.5328432 0.85759,0.3552288 1.61458,0.8610318 2.27097,1.5174092 0.65637,0.6563774 1.16217,1.4133647 1.51739,2.2709628 C 248.32236,5.6788139 248.49998,6.5717421 248.5,7.5 v 62 c -2e-5,0.928253 -0.17764,1.821175 -0.53288,2.678772 -0.35521,0.857605 -0.86101,1.614593 -1.51738,2.270973 -0.65639,0.656372 -1.41338,1.162171 -2.27097,1.517403 C 243.32117,76.32238 242.42824,76.499992 241.5,76.5 H 7.5 C 6.5717421,76.499992 5.6788139,76.32238 4.8212156,75.967148 3.9636173,75.611916 3.2066298,75.106117 2.5502524,74.449745 1.893875,73.793365 1.388072,73.036377 1.0328432,72.178772 0.67761433,71.321175 0.49999997,70.428253 0.5,69.5 Z" /></g></g></g><g
                 id="g156"><g
                   clip-path="url(#clipPath162)"
                   id="g158"><g
                     transform="translate(522,428)"
                     id="g164"><text
                       id="text168"
                       style="font-variant:normal;font-weight:normal;font-size:35px;font-family:Roboto;-inkscape-font-specification:Roboto-Regular;writing-mode:lr-tb;fill:#000000;fill-opacity:1;fill-rule:nonzero;stroke:none"
                       transform="translate(0,37)"><tspan
                         id="tspan166"
                         y="0"
                         x="0 22 31 51 70 88 104.29688 124.29688 142.09766 158.82422 177.55078 193.18359">В результате</tspan></text>
</g></g></g><g
                 id="g170"><g
                   clip-path="url(#clipPath176)"
                   id="g172"><g
                     transform="translate(645,535)"
                     id="g178"><path
                       id="path180"
                       style="fill:none;stroke:#000000;stroke-width:1;stroke-linecap:butt;stroke-linejoin:miter;stroke-miterlimit:10;stroke-dasharray:none;stroke-opacity:1"
                       d="M 0.5,333.5 V 7.5 C 0.49999997,6.5717421 0.67761433,5.6788139 1.0328432,4.8212156 1.388072,3.9636173 1.893875,3.2066298 2.5502524,2.5502524 3.2066298,1.893875 3.9636171,1.388072 4.8212152,1.0328432 5.6788139,0.67761439 6.5717421,0.5 7.5,0.5 h 315 c 0.92822,0 1.82114,0.17761439 2.67874,0.5328432 0.85761,0.3552288 1.61459,0.8610318 2.271,1.5174092 0.65634,0.6563774 1.16214,1.4133647 1.51739,2.2709628 C 329.32239,5.6788139 329.5,6.5717421 329.5,7.5 v 326 c 0,0.92825 -0.17761,1.82117 -0.53287,2.67874 -0.35525,0.85758 -0.86105,1.61456 -1.51739,2.27097 -0.65641,0.65634 -1.41339,1.16214 -2.271,1.51739 -0.8576,0.35523 -1.75052,0.53287 -2.67874,0.5329 H 7.5 c -0.9282579,-3e-5 -1.8211861,-0.17767 -2.6787844,-0.5329 C 3.9636173,339.61185 3.2066298,339.10605 2.5502524,338.44971 1.893875,337.7933 1.388072,337.03632 1.0328432,336.17874 0.67761433,335.32117 0.49999997,334.42825 0.5,333.5 Z" /></g></g></g><g
                 id="g182"><g
                   clip-path="url(#clipPath188)"
                   id="g184"><g
                     transform="translate(662,546)"
                     id="g190"><text
                       id="text194"
                       style="font-variant:normal;font-weight:normal;font-size:31.5px;font-family:Roboto;-inkscape-font-specification:Roboto-Regular;writing-mode:lr-tb;fill:#000000;fill-opacity:1;fill-rule:nonzero;stroke:none"
                       transform="translate(0,34)"><tspan
                         id="tspan192"
                         y="0"
                         x="0 22 38 61 77 95 112 137 150.78906 166.78906">Изменяются</tspan></text>
<text
                       id="text198"
                       style="font-variant:normal;font-weight:normal;font-size:31.5px;font-family:Roboto;-inkscape-font-specification:Roboto-Regular;writing-mode:lr-tb;fill:#000000;fill-opacity:1;fill-rule:nonzero;stroke:none"
                       transform="translate(0,80)"><tspan
                         id="tspan196"
                         y="0"
                         x="0 17 34 50 73 89 106 130 136 144 167 185 202 225">размеры, форма</tspan></text>
<text
                       id="text202"
                       style="font-variant:normal;font-weight:normal;font-size:31.5px;font-family:Roboto;-inkscape-font-specification:Roboto-Regular;writing-mode:lr-tb;fill:#000000;fill-opacity:1;fill-rule:nonzero;stroke:none"
                       transform="translate(0,126)"><tspan
                         id="tspan200"
                         y="0"
                         x="0 13.789062 29.789062 47.789062 55.789062 73.789062 91.789062 109.78906 117.78906 134.78906 147.78906 164.78906 180.78906 193.78906 210.54688 225.54688 243.54688 261.54688">тел или агрегатное</tspan></text>
<text
                       id="text206"
                       style="font-variant:normal;font-weight:normal;font-size:31.5px;font-family:Roboto;-inkscape-font-specification:Roboto-Regular;writing-mode:lr-tb;fill:#000000;fill-opacity:1;fill-rule:nonzero;stroke:none"
                       transform="translate(0,172)"><tspan
                         id="tspan204"
                         y="0"
                         x="0 16 34 50 64.363281 82.363281 99.363281 117.36328 135.36328 151.36328 159.36328 177.36328 193.36328 219.54297 235.54297 251.54297 266.54297 284.54297">состояние веществ,</tspan></text>
<text
                       id="text210"
                       style="font-variant:normal;font-weight:normal;font-size:31.5px;font-family:Roboto;-inkscape-font-specification:Roboto-Regular;writing-mode:lr-tb;fill:#000000;fill-opacity:1;fill-rule:nonzero;stroke:none"
                       transform="translate(0,218)"><tspan
                         id="tspan208"
                         y="0"
                         x="0 18 36 44 60 78 94 108.75781 125.75781 143.75781 151.75781 169.75781">но состав их</tspan></text>
<text
                       id="text214"
                       style="font-variant:normal;font-weight:normal;font-size:31.5px;font-family:Roboto;-inkscape-font-specification:Roboto-Regular;writing-mode:lr-tb;fill:#000000;fill-opacity:1;fill-rule:nonzero;stroke:none"
                       transform="translate(0,264)"><tspan
                         id="tspan212"
                         y="0"
                         x="0 18 34 48.757812 65.757812 81.589844 95.378906 111.37891">остаётся</tspan></text>
<text
                       id="text218"
                       style="font-variant:normal;font-weight:normal;font-size:31.5px;font-family:Roboto;-inkscape-font-specification:Roboto-Regular;writing-mode:lr-tb;fill:#000000;fill-opacity:1;fill-rule:nonzero;stroke:none"
                       transform="translate(0,310)"><tspan
                         id="tspan216"
                         y="0"
                         x="0 18 36 52 66.363281 84.363281 101.36328 119.36328 137.36328 161.36328">постоянным</tspan></text>
</g></g></g><g
                 id="g220"><g
                   clip-path="url(#clipPath226)"
                   id="g222"><g
                     transform="translate(32,535)"
                     id="g228"><path
                       id="path230"
                       style="fill:none;stroke:#000000;stroke-width:1;stroke-linecap:butt;stroke-linejoin:miter;stroke-miterlimit:10;stroke-dasharray:none;stroke-opacity:1"
                       d="M 0.5,660.5 V 7.5 C 0.49999997,6.5717421 0.67761433,5.6788139 1.0328432,4.8212156 1.388072,3.9636173 1.893875,3.2066298 2.5502524,2.5502524 3.2066298,1.893875 3.9636171,1.388072 4.8212152,1.0328432 5.6788139,0.67761439 6.5717421,0.5 7.5,0.5 h 564 c 0.92828,0 1.82117,0.17761439 2.67877,0.5328432 0.85761,0.3552288 1.61456,0.8610318 2.27094,1.5174092 0.65637,0.6563774 1.16217,1.4133647 1.51739,2.2709628 C 578.32239,5.6788139 578.5,6.5717421 578.5,7.5 v 653 c 0,0.92822 -0.17761,1.82111 -0.5329,2.67871 -0.35522,0.85761 -0.86102,1.61462 -1.51739,2.271 -0.65638,0.65631 -1.41333,1.16211 -2.27094,1.51739 -0.8576,0.35523 -1.75049,0.53284 -2.67877,0.5329 H 7.5 c -0.9282579,-6e-5 -1.8211861,-0.17767 -2.6787844,-0.5329 C 3.9636173,666.61182 3.2066298,666.10602 2.5502524,665.44971 1.893875,664.79333 1.388072,664.03632 1.0328432,663.17871 0.67761433,662.32111 0.49999997,661.42822 0.5,660.5 Z" /></g></g></g><g
                 id="g232"><g
                   clip-path="url(#clipPath238)"
                   id="g234"><g
                     transform="translate(49,546)"
                     id="g240"><text
                       id="text244"
                       style="font-variant:normal;font-weight:normal;font-size:31.5px;font-family:Roboto;-inkscape-font-specification:Roboto-Regular;writing-mode:lr-tb;fill:#000000;fill-opacity:1;fill-rule:nonzero;stroke:none"
                       transform="translate(0,34)"><tspan
                         id="tspan242"
                         y="0"
                         x="0 22 38 46 62.910156 81.910156 99.910156 117.91016 132.91016 140.91016 158.91016 174.91016 201.08984 217.08984 233.08984 248.08984 266.08984 274.08984 292.08984 308.83203 325.83203 342.83203 358.83203 373.83203 398.83203 412.62109 428.62109">Из одних веществ образуются</tspan></text>
<text
                       id="text248"
                       style="font-variant:normal;font-weight:normal;font-size:31.5px;font-family:Roboto;-inkscape-font-specification:Roboto-Regular;writing-mode:lr-tb;fill:#000000;fill-opacity:1;fill-rule:nonzero;stroke:none"
                       transform="translate(0,80)"><tspan
                         id="tspan246"
                         y="0"
                         x="0 19 35.832031 50.832031 63.832031 81.832031">другие</tspan></text>
<text
                       id="text252"
                       style="font-variant:normal;font-weight:normal;font-size:31.5px;font-family:Roboto;-inkscape-font-specification:Roboto-Regular;writing-mode:lr-tb;fill:#000000;fill-opacity:1;fill-rule:nonzero;stroke:none"
                       transform="translate(0,172)"><tspan
                         id="tspan250"
                         y="0"
                         x="0 19.179688 33.542969 51.542969 74.542969 98.542969 106.54297 124.54297 140.54297 148.54297 166.54297 183.28516 200.28516 217.28516 233.28516 248.28516 273.28516 287.07422 303.07422 320.07422 328.07422 346.07422 354.07422 372.07422">Атомы не образуются и не</tspan></text>
<text
                       id="text256"
                       style="font-variant:normal;font-weight:normal;font-size:31.5px;font-family:Roboto;-inkscape-font-specification:Roboto-Regular;writing-mode:lr-tb;fill:#000000;fill-opacity:1;fill-rule:nonzero;stroke:none"
                       transform="translate(0,218)"><tspan
                         id="tspan254"
                         y="0"
                         x="0 17 34 50 66.832031 81.832031 106.83203 123.83203 148.83203 162.62109 178.62109 195.62109 201.62109 209.62109 227.62109 244.62109 262.62109 280.62109 296.62109 311.31641 328.22656 347.22656 365.22656 380.22656 388.22656 406.22656 424.22656 449.22656 466.22656 474.22656 492.22656">разрушаются, происходит лишь их</tspan></text>
<text
                       id="text260"
                       style="font-variant:normal;font-weight:normal;font-size:31.5px;font-family:Roboto;-inkscape-font-specification:Roboto-Regular;writing-mode:lr-tb;fill:#000000;fill-opacity:1;fill-rule:nonzero;stroke:none"
                       transform="translate(0,264)"><tspan
                         id="tspan258"
                         y="0"
                         x="0 18 34 51 67 80 96.832031 111.83203 129.83203 147.83203 165.83203 182.83203 200.83203 218.83203 235.83203">перегруппировка</tspan></text>
<text
                       id="text264"
                       style="font-variant:normal;font-weight:bold;font-size:31.5px;font-family:Roboto;-inkscape-font-specification:Roboto-Bold;writing-mode:lr-tb;fill:#000000;fill-opacity:1;fill-rule:nonzero;stroke:none"
                       transform="translate(0,360)"><tspan
                         id="tspan262"
                         y="0"
                         x="0 19 36 52.136719 70.136719 88.136719 96.136719 112.13672 129.81641 145.81641 162.81641 179.81641 197.81641 214.81641 232.81641 250.81641 267.81641 275.81641 299.81641 316.81641 332.81641 348.81641 374.81641 382.81641 400.81641 417.81641 445.54297 462.54297 478.54297 494.54297">Закон сохранения массы веществ</tspan></text>
<text
                       id="text268"
                       style="font-variant:normal;font-weight:normal;font-size:31.5px;font-family:Roboto;-inkscape-font-specification:Roboto-Regular;writing-mode:lr-tb;fill:#000000;fill-opacity:1;fill-rule:nonzero;stroke:none"
                       transform="translate(512.54297,360)"><tspan
                         id="tspan266"
                         y="0"
                         x="0">:</tspan></text>
<text
                       id="text272"
                       style="font-variant:normal;font-weight:normal;font-size:31.5px;font-family:Roboto;-inkscape-font-specification:Roboto-Regular;writing-mode:lr-tb;fill:#000000;fill-opacity:1;fill-rule:nonzero;stroke:none"
                       transform="translate(0,407)"><tspan
                         id="tspan270"
                         y="0"
                         x="0 27 44 60 76 93 101 119 135 161.17969 177.17969 193.17969 208.17969 226.17969 232.17969 240.17969 258.17969 274.17969 289.34375 304.34375 322.34375 340.34375 358.34375 383.34375 401.34375 416.34375 424.34375 442.34375 450.34375 465.34375 483.34375 506.34375">Масса веществ, вступивших в хим.</tspan></text>
<text
                       id="text276"
                       style="font-variant:normal;font-weight:normal;font-size:31.5px;font-family:Roboto;-inkscape-font-specification:Roboto-Regular;writing-mode:lr-tb;fill:#000000;fill-opacity:1;fill-rule:nonzero;stroke:none"
                       transform="translate(0,453)"><tspan
                         id="tspan274"
                         y="0"
                         x="0 17 33 50 67 85 103 128 134 142 159 176 194 212 229 237 260 277 293 309 325 333 351 367 393.17969 409.17969 425.17969 440.17969 458.17969">реакцию, равна массе веществ,</tspan></text>
<text
                       id="text280"
                       style="font-variant:normal;font-weight:normal;font-size:31.5px;font-family:Roboto;-inkscape-font-specification:Roboto-Regular;writing-mode:lr-tb;fill:#000000;fill-opacity:1;fill-rule:nonzero;stroke:none"
                       transform="translate(0,499)"><tspan
                         id="tspan278"
                         y="0"
                         x="0 18 35.757812 53.757812 68.757812 85.757812 103.75781 121.75781 146.75781 164.75781 179.45312 195.45312 212.45312 220.45312 238.45312 246.45312 263.45312 279.45312 295.45312 309.83203 327.83203 343.76953 358.52734 375.28516 389.07422">получившихся в результате</tspan></text>
<text
                       id="text284"
                       style="font-variant:normal;font-weight:normal;font-size:31.5px;font-family:Roboto;-inkscape-font-specification:Roboto-Regular;writing-mode:lr-tb;fill:#000000;fill-opacity:1;fill-rule:nonzero;stroke:none"
                       transform="translate(0,545)"><tspan
                         id="tspan282"
                         y="0"
                         x="0 16 32 43 61 79 95 111.67969 129.4375 147.4375 164.4375 181.4375 196.4375 204.4375 227.4375 244.19531 257.98438 273.98438 290.98438 308.98438 325.98438 343.98438 360.98438 378.98438 402.98438 425.98438">её(поскольку материальными</tspan></text>
<text
                       id="text288"
                       style="font-variant:normal;font-weight:normal;font-size:31.5px;font-family:Roboto;-inkscape-font-specification:Roboto-Regular;writing-mode:lr-tb;fill:#000000;fill-opacity:1;fill-rule:nonzero;stroke:none"
                       transform="translate(0,591)"><tspan
                         id="tspan286"
                         y="0"
                         x="0 18 36 52 70 83.789062 99.789062 117.78906 134.78906 157.78906 175.78906 183.78906 206.78906 223.78906 239.78906 255.78906 279.78906 287.78906 305.78906 321.78906 347.96875 363.96875 379.96875 394.96875">носителями массы веществ</tspan></text>
<text
                       id="text292"
                       style="font-variant:normal;font-weight:normal;font-size:31.5px;font-family:Roboto;-inkscape-font-specification:Roboto-Regular;writing-mode:lr-tb;fill:#000000;fill-opacity:1;fill-rule:nonzero;stroke:none"
                       transform="translate(0,637)"><tspan
                         id="tspan290"
                         y="0"
                         x="0 17 35 53 70 95 108.78906 124.78906 141.78906 149.78906 166.54688 180.91016 198.91016 221.91016 245.91016 253.91016 268.91016 286.91016 309.91016 317.91016 325.91016 342.69531 360.69531 376.69531 399.69531 415.69531 433.69531 448.05859 466.05859 484.05859">являются атомы хим. элементов)</tspan></text>
</g></g></g></g></g></g></g></g></g></svg>